<svg xmlns="http://www.w3.org/2000/svg" width="110" height="110">
    <path fill="#306E51" fill-rule="evenodd" d="M54.996 109.998c-30.291 0-54.999-24.709-54.999-55.001 0-30.291 24.708-55 54.999-55 30.294 0 55.003 24.709 55.003 55 0 30.292-24.709 55.001-55.003 55.001zm0-103.89C28.071 6.108 6.11 28.071 6.11 54.997c0 26.93 21.961 48.892 48.886 48.892 26.928 0 48.89-21.962 48.89-48.892 0-26.926-21.962-48.889-48.89-48.889zm0 95.74c-25.831 0-46.849-21.016-46.849-46.851 0-25.834 21.018-46.851 46.849-46.851 25.834 0 46.854 21.017 46.854 46.851 0 25.835-21.02 46.851-46.854 46.851zm0-92.91C29.6 8.938 8.94 29.604 8.94 54.997c0 25.397 20.66 46.059 46.056 46.059 25.397 0 46.064-20.662 46.064-46.059 0-25.393-20.667-46.059-46.064-46.059zm40.372 33.948c-.397-.162-.668-.447-.81-.856-.114-.319-.142-.708-.091-1.179.053-.466.037-.818-.048-1.053-.056-.162-.176-.271-.356-.328-.187-.055-.376-.049-.576.02l-.095-1.152c.42-.149.831-.145 1.236.013.401.157.676.442.819.847.09.251.114.628.074 1.129-.04.504-.018.872.066 1.106.053.153.173.262.355.329.183.068.381.063.588-.012l.068 1.148c-.427.154-.837.149-1.23-.012zm-10.491 6.252l-.726-2.061L86 45.661l-1.127-3.195-2.323.086-.733-2.063 10.877-.143.717 2.022-8.534 6.77zm5.5-6.852l-3.805.123.788 2.227 3.031-2.309-.014-.041zm-10.038-3.819l3.42-2.583-2.531-3.409-3.419 2.584-1.249-1.682 8.237-6.216 1.245 1.679-3.542 2.673 2.533 3.412 3.541-2.674 1.248 1.679-8.235 6.215-1.248-1.678zm-9.107-9.136l2.038-3.792-3.706-2.039-2.041 3.791-1.826-1.005 4.908-9.124 1.826 1.007-2.11 3.921 3.707 2.039 2.109-3.921 1.825 1.002-4.907 9.124-1.823-1.003zm-8.695-3.821l-2.88-7.658h-.044l-1.228 6.889-2.04-.377 1.821-10.225 2.044.378 2.879 7.647.044.002 1.23-6.881 2.04.379-1.825 10.223-2.041-.377zm-10.3-12.227l1.327-1.954 2.311-.1.016.043-1.885 1.94-1.769.071zm-4.169 7.673L44 22.059l1.127 4.173-2.004.545-2.71-10.039 2.005-.544 1.164 4.314 4.068-1.101-1.163-4.316 2-.547 2.71 10.039-2.002.545-1.127-4.172zm-7.539 3.263l.034.028c.602.927.78 1.842.529 2.747-.248.905-.888 1.682-1.919 2.339-1.047.665-2.104.866-3.176.598-1.071-.267-1.946-.94-2.62-2.014l-1.093-1.746c-.674-1.072-.911-2.149-.71-3.229.198-1.085.809-1.953 1.829-2.601 1.066-.678 2.064-.948 2.99-.807.932.143 1.689.694 2.266 1.653l.015.046-1.708 1.084c-.353-.563-.752-.896-1.195-.999-.446-.106-.949.021-1.513.381-.523.336-.8.807-.828 1.419-.028.611.168 1.256.591 1.927l1.104 1.759c.425.677.927 1.127 1.506 1.359.578.231 1.142.167 1.695-.185.524-.331.829-.72.913-1.16.084-.44-.05-.946-.409-1.519l1.699-1.08zM31.468 35.43c-.119.706-.469 1.476-1.057 2.302-.725 1.028-1.635 1.638-2.737 1.832-1.097.194-2.158-.078-3.175-.808l-1.756-1.263c-1.013-.735-1.619-1.645-1.813-2.74-.191-1.095.064-2.141.766-3.138.731-1.038 1.541-1.658 2.414-1.86.876-.201 1.717 0 2.511.603l.026.035L25.518 32c-.448-.322-.889-.442-1.319-.36-.432.083-.824.37-1.177.869-.369.52-.461 1.087-.291 1.691.171.606.572 1.134 1.198 1.584l1.765 1.271c.636.459 1.27.667 1.9.63.63-.04 1.138-.333 1.524-.882.288-.405.472-.755.558-1.047.085-.293.111-.547.08-.766l-1.628-1.173-1.154 1.633-1.163-.837 2.361-3.342 3.24 2.334c.156.511.172 1.119.056 1.825zm-4.642 8.635l-7.866 1.948-.004.041 6.634 2.073-.606 2.002-9.849-3.081.607-1.999 7.86-1.949.004-.041-6.63-2.073.608-2.001 9.852 3.078-.61 2.002zm-1.948 8.595l-2.217.711.012 3.387 2.225.704.004 2.188-10.313-3.524-.008-2.148 10.293-3.505.004 2.187zm-3.838 1.218l-3.625 1.156v.043l3.633 1.163-.008-2.362zm-9.348 3.946l-.006-2.331 1.876-1.408.005 1.803-1.831 1.952-.044-.016zm13.926 4.199l-4.088 1.266 1.243 4.064 4.092-1.259.613 2.004-9.844 3.035-.61-2.006 4.231-1.303-1.246-4.069-4.231 1.306-.613-2.006 9.841-3.035.612 2.003zm2.231 17.481l1.155-2.043 1.158 2.043 2.277.478-1.565 1.744.253 2.335-2.123-.964-2.124.964.255-2.335-1.567-1.744 2.281-.478zM54.32 14.227l.474 10.385-2.076.09-.472-10.387 2.074-.088zm.676 16.498c13.237 0 24.031 10.904 24.031 24.272 0 13.369-10.794 24.273-24.031 24.273-3.811 0-7.404-.927-10.611-2.533l1.951-1.274s3.784-2.142 6.468-2.429c2.676-.291 7.826.518 10.801-1.105 2.977-1.621 6.918-3.84 6.633-5.593-.286-1.752-1.377-1.531-1.377-1.531s.044-.143.401-.579c.355-.436 1.408-1.234 1.029-2.671-.379-1.435-1.527-1.568-1.527-1.568.646-1.273 1.43-1.154.73-3.516-.503-1.697-1.948-1.43-1.948-1.43s1.675-1.19 1.148-3.333c-.534-2.138-2.279-2.337-4.353-2.177-2.072.16-8.235 1.592-8.416.966-.174-.622.305-.929.736-2.323.436-1.391 2.322-4.717 1.808-7.218-.516-2.499-1.524-4.505-2.718-4.556-1.192-.051-2.084 1.021-2.153 1.474-.072.448-.126.882.197 2.304.321 1.424-.307 2.38-1.599 4.84-1.296 2.46-2.263 1.896-3.765 3.924-1.503 2.026-1.589 3.018-1.649 5.861-.056 2.839-1.276 3.667-3.852 6.025-1.913 1.755-6.955 3.946-9.416 4.957-1.613-3.254-2.543-6.911-2.543-10.788 0-13.368 10.792-24.272 24.025-24.272zM43.705 76.403c.22.121.455.219.68.334l-.037.022c-.22-.11-.429-.239-.643-.356zm-9.888-9.979c-.11-.209-.235-.41-.341-.625l.038-.014c.102.211.193.432.303.639zm7.717 8.657c-2.521-1.728-4.696-3.926-6.409-6.471 1.713 2.542 3.891 4.741 6.409 6.471zm2.311 13.514l1.093-1.936 1.1 1.936 2.156.454-1.48 1.649.238 2.215-2.014-.915-2.008.915.239-2.215-1.483-1.649 2.159-.454zm19.948.677l1.096-1.934 1.095 1.934 2.159.453-1.485 1.653.24 2.215-2.009-.916-2.013.916.239-2.215-1.48-1.653 2.158-.453zm14.427-9.011l1.158-2.041 1.157 2.041 2.28.479-1.567 1.742.253 2.337-2.123-.964-2.122.964.255-2.337-1.569-1.742 2.278-.479zm7.622-19.943c.961-.57 2.044-.691 3.256-.363l2.076.566c1.201.325 2.086.971 2.648 1.93.557.958.682 2.028.369 3.211-.323 1.232-.861 2.1-1.613 2.598-.749.499-1.601.605-2.558.321l-.036-.024.5-1.906c.532.143.983.1 1.358-.127.375-.231.646-.64.798-1.232.165-.618.062-1.181-.313-1.689-.373-.507-.928-.861-1.671-1.064l-2.092-.567c-.753-.204-1.417-.18-1.994.08-.576.258-.947.715-1.121 1.363-.129.483-.179.874-.159 1.181.022.305.085.555.192.745l1.926.526.512-1.94 1.382.376-1.047 3.967-3.842-1.042c-.322-.428-.552-.99-.686-1.694-.132-.705-.072-1.55.189-2.534.323-1.218.962-2.112 1.926-2.682zm9.617-4.921l.094 2.093-10.293.434-.094-2.091 6.754-4.501-.01-.043-6.933.293-.094-2.094 10.293-.433.092 2.091-6.746 4.5.01.044 6.927-.293z"/>
</svg>
