<svg xmlns="http://www.w3.org/2000/svg" width="111" height="112">
    <path fill="#336D51" fill-rule="evenodd" d="M110.938 58.396c-1.305 30.351-26.96 53.889-57.306 52.568-30.344-1.321-53.889-27-52.587-57.349C2.35 23.263 28.007-.274 58.353 1.047c30.344 1.32 53.889 26.998 52.585 57.349zM58.143 5.881c-.745-.033-1.491-.049-2.232-.049-12.572 0-24.512 4.637-33.832 13.188-9.872 9.055-15.624 21.416-16.201 34.803-1.185 27.639 20.331 51.103 47.963 52.306 13.377.589 26.192-4.084 36.064-13.139 9.871-9.055 15.623-21.415 16.199-34.804 1.189-27.637-20.327-51.102-47.961-52.305zm-2.144 85.084v.006l-.008-.003-.006.003v-.006c-.716-.331-31.169-14.651-28.385-57.643 0 0 12.728-.958 28.385-8.608v-.008l.006.004c.004-.002.007-.002.008-.004v.008c15.657 7.65 28.384 8.608 28.384 8.608 2.784 42.992-27.668 57.312-28.384 57.643zm24.07-53.187c-.03-.456-.39-.82-.845-.855-.102-.008-10.326-.845-22.737-6.888-.27-.172-.664-.181-.943-.023-12.431 6.063-22.682 6.903-22.784 6.911-.455.035-.815.399-.845.855-2.252 34.795 21.654 46.947 23.598 47.875.138.084.301.132.475.132H55.997c.173 0 .334-.048.474-.131 1.944-.925 25.852-13.047 23.598-47.876zM55.993 83.846c-3.21-1.628-24.003-13.432-22.295-45.175 2.662-.308 11.558-1.667 22.295-6.838 10.735 5.171 19.631 6.53 22.293 6.838 1.71 31.774-19.083 43.552-22.293 45.175zm6.524-15.571l-6.739-.058.01-1.211 4.021.035c.592.005 1.082-.476 1.087-1.069.005-.592-.476-1.081-1.069-1.087l-4.02-.035.09-10.346c2.38-.717 4.134-2.89 4.156-5.506.028-3.219-2.558-5.852-5.777-5.88-3.218-.028-5.85 2.559-5.878 5.778-.023 2.606 1.679 4.802 4.031 5.569l-.142 16.345c-.008.954.765 1.741 1.719 1.75.954.008 1.741-.766 1.749-1.719l.004-.469 6.74.059c.592.005 1.081-.475 1.086-1.068.006-.593-.475-1.083-1.068-1.088zM50.915 48.801c.015-1.782 1.472-3.214 3.254-3.199 1.781.016 3.213 1.473 3.197 3.255-.015 1.782-1.472 3.214-3.253 3.198-1.782-.015-3.214-1.472-3.198-3.254z"/>
</svg>
