<?xml version="1.0" encoding="utf-8"?>
<!-- Generator: Adobe Illustrator 24.0.0, SVG Export Plug-In . SVG Version: 6.00 Build 0)  -->
<svg version="1.1" id="Layer_1" xmlns="http://www.w3.org/2000/svg" xmlns:xlink="http://www.w3.org/1999/xlink" x="0px" y="0px"
	 viewBox="0 0 54 54" style="enable-background:new 0 0 54 54;" xml:space="preserve">
<style type="text/css">
	.st0{fill-rule:evenodd;clip-rule:evenodd;fill:#306E51;}
	.st1{fill:#FFFFFF;}
</style>
<path class="st0" d="M27,54C12.1,54,0,41.9,0,27C0,12.3,11.7,0.4,26.2,0c0.3,0,0.5,0,0.8,0c0.2,0,0.5,0,0.7,0
	C42.3,0.4,54,12.3,54,27C54,41.9,41.9,54,27,54z M27,2.5C13.5,2.5,2.5,13.5,2.5,27c0,13.5,11,24.5,24.5,24.5
	c13.5,0,24.5-11,24.5-24.5C51.5,13.5,40.5,2.5,27,2.5z M44.7,28l-0.2,2.2l2.3,0.3l-0.1,1.1l-5.3-0.7l0.1-1.1l2.2,0.3l0.2-2.2
	l-2.2-0.3l0.1-1.1l5.3,0.7L47,28.2C47,28.2,44.7,28,44.7,28z M45.3,25.4c-0.5,0.1-0.9,0-1.3-0.3c-0.4-0.3-0.6-0.7-0.8-1.4l-0.2-1
	l-1.9,0.4L41,22l5.2-1l0.4,2c0.1,0.6,0.1,1.1-0.2,1.5C46.2,25,45.8,25.3,45.3,25.4z M45.8,23.2l-0.2-1l-1.7,0.3l0.2,1
	c0.1,0.3,0.2,0.5,0.4,0.6c0.2,0.1,0.4,0.2,0.7,0.1c0.2,0,0.4-0.2,0.6-0.4C45.8,23.8,45.8,23.5,45.8,23.2z M39.4,18.9l1.6-3.9l0,0
	l-2.9,2.1l-0.6-0.9l4.3-3.2l0.6,0.9l-1.6,3.9l0,0l2.9-2.1l0.6,0.9L40,19.8C40,19.8,39.4,18.9,39.4,18.9z M40,9.8
	c-0.1-0.1-0.2-0.2-0.3-0.4c-0.1-0.2-0.2-0.3-0.3-0.3c0,0-0.1,0-0.2,0c-0.1,0-0.1,0.1-0.2,0.1l-0.3-0.3c0.1-0.1,0.2-0.2,0.4-0.3
	c0.2,0,0.3,0,0.4,0.1c0.1,0.1,0.2,0.2,0.3,0.4c0.1,0.2,0.2,0.3,0.3,0.4c0,0,0.1,0,0.2,0c0.1,0,0.1-0.1,0.2-0.1l0.3,0.4
	c-0.1,0.1-0.2,0.2-0.4,0.3C40.2,9.9,40.1,9.9,40,9.8z M39.8,10l0.4,1.3l0,0l-0.8-0.6L39.2,10L38.4,10l-0.8-0.6l0,0l1.4,0
	C39.1,9.4,39.8,10,39.8,10z M39.7,12.3l-1.9-1.4L37,12l1.6,1.2l-0.5,0.7l-1.6-1.2l-0.9,1.2l1.9,1.4L37.1,16l-2.8-2.1l3.1-4.3
	l2.8,2.1C40.2,11.7,39.7,12.3,39.7,12.3z M32.5,13.1l2.2-4.9l1,0.5l-2.2,4.9C33.5,13.6,32.5,13.1,32.5,13.1z M30.8,12.4l0.5-3.6l0,0
	l-1.8,3.4l-0.7-0.1l-0.8-3.8l0,0l-0.5,3.6l-1.1-0.2L27,6.4l1.4,0.2l0.8,4.1l0,0l1.9-3.7l1.4,0.2l-0.7,5.3
	C31.9,12.6,30.8,12.4,30.8,12.4z M22.6,11.4L21,12l0,1.2l-1,0.4l0,0l-0.9,0.7c-0.1,0-0.3-0.1-0.4-0.2c-0.1-0.1-0.2-0.3-0.3-0.4
	l-0.2-0.3C18,13.2,17.8,13,17.6,13c-0.2,0-0.4,0-0.6,0.2l-0.7,0.5l1.3,1.7l-0.9,0.7l-3.2-4.3l1.5-1.1c0.5-0.4,1-0.5,1.4-0.5
	c0.4,0,0.8,0.2,1.1,0.6c0.2,0.2,0.2,0.5,0.3,0.7c0,0.2-0.1,0.5-0.2,0.8c0.3-0.1,0.6-0.1,0.8,0c0.2,0.1,0.5,0.3,0.7,0.5l0.2,0.3
	c0.1,0.1,0.2,0.2,0.3,0.3c0.1,0.1,0.3,0.2,0.4,0.2L19.9,8l1-0.4l3.5,4.5l-1.1,0.4C23.4,12.4,22.6,11.4,22.6,11.4z M16.7,11.4
	c-0.1-0.2-0.3-0.3-0.5-0.3c-0.2,0-0.4,0-0.7,0.2l-0.6,0.5l0.9,1.3l0.6-0.5c0.2-0.2,0.4-0.4,0.4-0.6C16.9,11.8,16.8,11.6,16.7,11.4z
	 M20.9,9.2L20.9,9.2l0.1,2l1.1-0.4L20.9,9.2z M20.5,7l0.1,0.2l-0.8,0.3L19.6,7c0.2-0.1,0.3-0.1,0.3-0.2C20,6.7,20,6.7,20,6.6l0,0
	c0-0.1-0.1-0.1-0.2-0.1c-0.1,0-0.2,0-0.4,0.1l-0.1-0.5c0.4-0.2,0.8-0.2,1-0.2c0.3,0,0.4,0.2,0.5,0.4c0.1,0.1,0,0.3,0,0.4
	C20.7,6.8,20.6,6.9,20.5,7z M15.6,17.5L15,18.4l-3.6-2.7l-0.9,1.2l-0.7-0.5l2.5-3.3l0.7,0.5L12,14.8L15.6,17.5z M12.9,22.7l-5-1.8
	l0.3-1l5,1.8L12.9,22.7z M9.5,23l1,0.1c0.7,0.1,1.2,0.3,1.6,0.8c0.4,0.5,0.5,1,0.5,1.7c-0.1,0.7-0.3,1.2-0.8,1.6
	c-0.5,0.4-1,0.5-1.7,0.5l-1-0.1c-0.6-0.1-1.2-0.3-1.6-0.8S7,25.7,7,25.1c0.1-0.7,0.3-1.2,0.8-1.6C8.3,23.1,8.8,23,9.5,23z M7.9,25.2
	c0,0.4,0.1,0.7,0.3,0.9c0.2,0.2,0.6,0.4,1,0.4l1,0.1c0.4,0,0.8,0,1.1-0.2c0.3-0.2,0.4-0.5,0.5-0.8c0-0.4-0.1-0.7-0.3-0.9
	s-0.6-0.4-1-0.4l-1-0.1c-0.4,0-0.8,0-1,0.2C8,24.5,7.9,24.8,7.9,25.2z M6.1,25l0.5,0.6l-0.1,0.9l0,0l-0.8-1.2l0.1-0.9l1-1l0,0
	l-0.1,1C6.8,24.4,6.1,25,6.1,25z M5.9,23.7c0-0.2,0-0.3,0-0.3c0-0.1-0.1-0.1-0.1-0.1l0,0c-0.1,0-0.1,0-0.2,0.1
	c0,0.1-0.1,0.2-0.1,0.3l-0.4-0.1c0-0.4,0.1-0.7,0.2-0.9c0.1-0.2,0.3-0.3,0.5-0.3c0.1,0,0.2,0.1,0.3,0.2c0.1,0.1,0.1,0.2,0.1,0.3
	l0.2,0l-0.1,0.7L5.9,23.7z M9.2,28.9l0.9-0.2c0.6-0.1,1.2,0,1.7,0.3c0.5,0.3,0.8,0.8,1,1.5l0.4,1.9l-2.3,0.5l0.1,0.5l-0.6,0.1
	L10.2,33L8,33.5l-0.4-1.9c-0.1-0.6-0.1-1.2,0.2-1.7C8.1,29.4,8.6,29.1,9.2,28.9z M8.4,31.5l0.2,0.8l1.4-0.3L9.8,31l0.6-0.1l0.2,0.9
	l1.5-0.3L12,30.7c-0.1-0.4-0.3-0.6-0.6-0.8c-0.3-0.2-0.7-0.2-1.1-0.1L9.5,30c-0.4,0.1-0.7,0.3-0.9,0.5C8.4,30.8,8.3,31.1,8.4,31.5z
	 M27,46.7c7,0,13.1-3.9,16.3-9.6l0.5,0.2c-3.3,5.9-9.6,9.9-16.8,9.9c-7.8,0-14.5-4.7-17.5-11.3l0.5-0.1C13,42.2,19.5,46.7,27,46.7z
	 M27,39c-5.2,0-9.5-3.3-11.2-7.8c-0.2-0.6-0.4-1.2-0.5-1.8C15.1,28.6,15,27.8,15,27c0-6.6,5.4-12,12-12c4.2,0,7.9,2.2,10,5.4
	c1.2,1.9,2,4.1,2,6.5c0,0,0,0.1,0,0.1c0,1.2-0.2,2.4-0.5,3.5c-0.1,0.4-0.3,0.8-0.4,1.2C36.2,36,32,39,27,39z M17.8,33.6l2.3-0.8
	l0.1,0.1c0,0.1,0.1,0.1,0.2,0.2c0.1,0.1,0.1,0.1,0.2,0.2l0.4,0.4c0.1,0.1,0.1,0.1,0.2,0.2l0.3,0.2l0.6,0.4c0.2,0.1,0.4,0.2,0.7,0.4
	c0.1,0.1,0.2,0.1,0.3,0.2l0.4,0.2l0.4,0.2c0.1,0.1,0.3,0.1,0.4,0.1l0.8,0.2c0.3,0,0.6,0.1,0.9,0.1l0.2,0l0.2,0l0.4,0h0.5l0.5,0
	c0.3,0,0.6-0.1,0.9-0.1c0.6-0.1,1.2-0.3,1.7-0.6c0.6-0.2,1.1-0.6,1.5-0.9c0.4-0.3,0.9-0.7,1.2-1.1c0.1-0.1,0.2-0.2,0.3-0.3l0.2-0.3
	c0.2-0.2,0.3-0.4,0.4-0.6c0.1-0.2,0.2-0.4,0.3-0.5c0-0.1,0.1-0.2,0.1-0.3l0.1-0.3c0.2-0.3,0.3-0.6,0.3-0.9c0.1-0.2,0.1-0.4,0.2-0.6
	c0-0.1,0.1-0.2,0.1-0.2L35,29.4c-0.1,0.1-0.1,0.3-0.2,0.5c-0.1,0.2-0.2,0.5-0.4,0.8L34.2,31c-0.1,0.1-0.1,0.2-0.2,0.2
	c-0.1,0.2-0.2,0.3-0.4,0.5c-0.1,0.2-0.3,0.3-0.4,0.5c-0.1,0.1-0.2,0.2-0.2,0.2l-0.3,0.2c-0.4,0.3-0.8,0.6-1.2,0.9
	C31,33.8,30.5,34,30,34.2c-0.5,0.2-1.1,0.3-1.6,0.3c-0.3,0-0.5,0.1-0.8,0l-0.4,0c-0.1,0-0.3,0-0.4,0c-0.1,0-0.3,0-0.4-0.1l-0.2,0
	l-0.2,0l-0.7-0.2l-0.7-0.3c-0.1,0-0.2-0.1-0.3-0.2c-0.1-0.1-0.2-0.1-0.3-0.2l-0.3-0.2c-0.1-0.1-0.2-0.1-0.3-0.2
	c-0.2-0.1-0.3-0.2-0.5-0.4c-0.1-0.1-0.3-0.3-0.4-0.4c-0.1-0.1-0.1-0.1-0.2-0.2c-0.1-0.1-0.1-0.1-0.2-0.2L22.1,32l2.1-0.8l-5.2-4.4
	C18.9,26.9,17.8,33.6,17.8,33.6z M31,28.6v-0.8h-0.6v-3.2h-1L27.3,28l0,0.6h2.1v1.1h1v-1.1C30.4,28.6,31,28.6,31,28.6z M25.7,29.7
	v-5.2l-2.1,0.2v0.8h1.1v4.2C24.7,29.7,25.7,29.7,25.7,29.7z M34.3,21.1C34.3,21,34.2,21,34.3,21.1l-0.2-0.2
	c-0.1-0.1-0.1-0.1-0.2-0.2l-0.4-0.4c-0.1-0.1-0.1-0.1-0.2-0.2L33,19.9l-0.6-0.4c-0.2-0.1-0.4-0.2-0.6-0.4L31.5,19
	c-0.1-0.1-0.2-0.1-0.4-0.2c-0.3-0.1-0.5-0.2-0.8-0.3c-0.2-0.1-0.5-0.1-0.7-0.2l-0.1,0c-0.1,0-0.3-0.1-0.4-0.1l-0.5-0.1
	c-0.1,0-0.3,0-0.5,0l-0.4,0l-0.4,0l-0.1,0h-0.1l-0.1,0l-0.2,0c-0.1,0-0.3,0-0.4,0L26,18.3c-0.3,0-0.6,0.1-0.9,0.2
	c-0.3,0.1-0.6,0.2-0.8,0.3c-0.1,0.1-0.3,0.1-0.4,0.2c-0.1,0.1-0.3,0.1-0.4,0.2l0,0c-0.2,0.1-0.5,0.3-0.7,0.4
	c-0.2,0.2-0.4,0.3-0.6,0.5c-0.1,0.1-0.1,0.1-0.2,0.2c-0.1,0.1-0.3,0.2-0.4,0.4c-0.2,0.2-0.3,0.4-0.5,0.5c-0.1,0.1-0.1,0.2-0.2,0.3
	c-0.1,0.1-0.1,0.2-0.2,0.3L20.4,22l-0.2,0.3c-0.1,0.2-0.2,0.3-0.3,0.5c-0.2,0.3-0.3,0.6-0.4,0.8c-0.1,0.2-0.1,0.4-0.2,0.5l-0.1,0.2
	l0.1-0.2c0.1-0.1,0.1-0.3,0.2-0.5c0.1-0.2,0.3-0.5,0.5-0.8c0.1-0.1,0.2-0.3,0.3-0.4c0.1-0.1,0.1-0.2,0.2-0.2
	c0.1-0.1,0.1-0.1,0.2-0.2l0.2-0.2c0.1-0.1,0.2-0.1,0.2-0.2c0.2-0.2,0.3-0.3,0.5-0.5c0.2-0.2,0.4-0.3,0.6-0.4
	c0.1-0.1,0.2-0.1,0.3-0.2c0.1-0.1,0.2-0.1,0.4-0.2c0.2-0.1,0.5-0.2,0.7-0.3c0.1,0,0.2-0.1,0.4-0.1l0.4-0.1c0.3-0.1,0.5-0.1,0.8-0.2
	c0.3,0,0.5-0.1,0.8-0.1l0.4,0c0.1,0,0.3,0,0.4,0l0.2,0h0l0,0l0,0l0.1,0c0.1,0,0.3,0,0.4,0l0.4,0.1c0.1,0,0.2,0.1,0.4,0.1l0.3,0.1
	c0.1,0,0.2,0.1,0.3,0.1c0.2,0.1,0.4,0.2,0.7,0.3c0.2,0.1,0.4,0.2,0.6,0.3c0.1,0.1,0.2,0.1,0.3,0.2l0.3,0.2c0.2,0.1,0.3,0.2,0.5,0.4
	l0.4,0.4c0.1,0.1,0.1,0.1,0.2,0.2c0.1,0.1,0.1,0.1,0.2,0.2l0,0.1l0,0.1l-2.1,0.8l5.2,4.4l0.4-2.2l0.8-4.4
	C36.5,20.3,34.3,21.1,34.3,21.1z M29.3,26.2l0.1-0.2l0,0v1.9h-1.2C28.2,27.8,29.3,26.2,29.3,26.2z M40.8,37.1
	c0.2-0.3,0.4-0.6,0.6-0.9l0.4,0.2l0.5,0.2c-3,5.4-8.8,9-15.3,9c-7,0-13-4.1-15.9-10l0.5-0.1l0.5-0.1c0.2,0.4,0.4,0.8,0.7,1.2
	c2.7,4.5,7.5,7.6,13,8c0.4,0,0.8,0,1.2,0c0.4,0,0.8,0,1.2,0c1.1-0.1,2.1-0.3,3.1-0.5c1-0.3,1.9-0.6,2.8-1.1
	c-0.6,0.3-1.2,0.6-1.9,0.8c1.8-0.6,3.5-1.4,5.1-2.6C38.7,40.1,39.9,38.7,40.8,37.1C40.9,37.2,40.8,37.1,40.8,37.1z M41,31.6l5,1.9
	l-0.4,1l-5-1.9C40.6,32.6,41,31.6,41,31.6z M47.1,34.7l-0.4,1.1l0,0l-0.5-1.3l0.3-0.9C46.5,33.7,47.1,34.7,47.1,34.7z"/>
<polygon class="st0" points="22.5,23.5 25.4,22.7 27.7,23.5 31,24.1 32.6,27.1 31.9,30.6 28.2,31.3 23.7,29.7 "/>
<g>
	<path class="st1" d="M24.1,26h0.6c0.5,0,0.7-0.2,0.7-0.7c0-0.2-0.1-0.3-0.2-0.4c-0.1-0.1-0.3-0.2-0.5-0.2c-0.2,0-0.3,0-0.4,0.1
		c-0.1,0.1-0.2,0.2-0.2,0.4h-1.3c0-0.3,0.1-0.5,0.2-0.8c0.2-0.2,0.4-0.4,0.7-0.5c0.3-0.1,0.6-0.2,0.9-0.2c0.6,0,1.1,0.1,1.4,0.4
		c0.3,0.3,0.5,0.7,0.5,1.1c0,0.2-0.1,0.5-0.2,0.7c-0.1,0.2-0.4,0.4-0.6,0.5c0.3,0.1,0.5,0.3,0.7,0.5c0.2,0.2,0.2,0.5,0.2,0.8
		c0,0.5-0.2,0.9-0.6,1.2c-0.4,0.3-0.9,0.4-1.5,0.4c-0.4,0-0.7-0.1-1-0.2c-0.3-0.1-0.5-0.3-0.7-0.6c-0.2-0.2-0.2-0.5-0.2-0.8h1.3
		c0,0.2,0.1,0.3,0.2,0.4c0.1,0.1,0.3,0.2,0.5,0.2c0.2,0,0.4-0.1,0.5-0.2c0.1-0.1,0.2-0.3,0.2-0.5c0-0.3-0.1-0.5-0.2-0.6
		c-0.1-0.1-0.3-0.2-0.6-0.2h-0.6V26z"/>
	<path class="st1" d="M31.2,27c0,0.7-0.2,1.3-0.5,1.7c-0.3,0.4-0.8,0.6-1.4,0.6c-0.6,0-1.1-0.2-1.4-0.6c-0.3-0.4-0.5-1-0.5-1.7v-1
		c0-0.7,0.2-1.3,0.5-1.7c0.3-0.4,0.8-0.6,1.4-0.6c0.6,0,1.1,0.2,1.4,0.6c0.3,0.4,0.5,1,0.5,1.7V27z M29.9,25.8
		c0-0.4-0.1-0.7-0.2-0.9c-0.1-0.2-0.3-0.3-0.5-0.3c-0.2,0-0.4,0.1-0.5,0.3c-0.1,0.2-0.2,0.5-0.2,0.8v1.4c0,0.4,0.1,0.7,0.2,0.9
		c0.1,0.2,0.3,0.3,0.5,0.3c0.2,0,0.4-0.1,0.5-0.3c0.1-0.2,0.2-0.5,0.2-0.9V25.8z"/>
</g>
</svg>
